<svg width="204" height="39" xmlns="http://www.w3.org/2000/svg"><g fill="#005DAA" fill-rule="evenodd"><path d="M56.763 11.703c-.49.575-.759 1.27-.868 1.963l-1.472 9.291c-.11.693-.06 1.387.246 1.972h-6.15c.49-.585.759-1.279.869-1.972l1.47-9.29c.11-.695.062-1.389-.244-1.964h6.15zm7.297 4.425c.52-.757 1.056-.977 1.92-.977h3.593c2.063 0 2.898 1.236 2.58 3.24l-.646 4.08c-.134.853-.267 1.686.01 2.46h-5.602c.484-.636.617-1.35.73-2.065l.062-.396.675-4.257c.125-.791.07-1.208-.833-1.208h-1.465c-.684 0-.915.317-1.014.95l-.716 4.515c-.134.854-.266 1.687.013 2.46h-5.594c.488-.694.63-1.469.753-2.24l.035-.22.768-4.85c.085-.535.17-1.073.172-1.592a1.97 1.97 0 00-.179-.877h4.694l.044.977zm21.318.877H81.32l-.72 4.54c-.19 1.21-.101 1.527 1.192 1.527h1.293c.676 0 1.368-.1 2.01-.516l-.754 2.376H79.27c-2.248 0-3.942-.357-3.518-3.03l.774-4.897h-1.49l.292-1.854h1.492l.319-2.009 4.825-.199-.349 2.208h4.057l-.293 1.854zm14.704 3.965H92l-.128.814c-.183 1.152.212 1.29 1.262 1.29h4.348c.715 0 1.484-.079 2.18-.456l-.724 2.311H90.22c-2.383 0-3.497-.738-3.086-3.323l.497-3.145c.37-2.333 1.556-3.31 3.861-3.31h6.012c2.405 0 3.385.717 2.982 3.27l-.405 2.55zm-4.436-1.86l.163-1.043c.09-.57.09-1.062-.603-1.062h-1.885c-.574 0-.746.334-.841.944l-.185 1.16h3.35zm12.713-2.359c.652-1.346 1.45-1.603 2.781-1.603h2.41l-.512 3.23c-.456-.517-1.184-.577-1.92-.577h-.975c-.934 0-1.709.497-1.863 1.472l-.508 3.201c-.135.853-.267 1.685.01 2.458h-5.592c.49-.693.632-1.466.755-2.24l.034-.218.77-4.871c.086-.536.17-1.07.172-1.583a1.934 1.934 0 00-.18-.872h4.753l-.135 1.603zm8.629-1.6h8.897l.48-.02c1.672.02 2.65 1.137 2.388 2.794l-.718 4.536c-.057.853-.288 1.69.008 2.468h-4.724c-.123-.34-.148-.678-.133-1.037-.369.817-1.155 1.037-1.927 1.037h-3.573c-1.929 0-2.924-.618-2.596-2.707l.267-1.663c.243-1.527 1.428-2.241 2.841-2.241h4.88c.475 0 .83-.117.935-.648.1-.625-.43-.665-.945-.665h-4.643c-.738 0-1.427.098-2.12.451l.683-2.305zm6.652 4.991h-2.297c-.91 0-1.19.397-1.326 1.25l-.067.435c-.134.831.039 1.248.929 1.248h1.168c.913 0 1.192-.397 1.328-1.248l.265-1.685zm19.723-2.642c-.535-.396-1.174-.495-1.873-.495h-2.91c-.876 0-1.38.159-1.532 1.128l-.62 3.913c-.147.93.455 1.029 1.231 1.029h2.75c.798 0 1.397-.139 2.16-.553l-.779 2.407h-7.189c-.454 0-.897-.08-1.347-.12-1.188-.26-1.847-1.376-1.652-2.604l.7-4.408c.303-1.929 2.043-2.646 3.71-2.646h7.326l.025 2.349zm12.471-.495h-4.057l-.72 4.54c-.19 1.21-.103 1.527 1.19 1.527h1.295c.676 0 1.368-.1 2.01-.516l-.751 2.376h-5.074c-2.247 0-3.942-.357-3.52-3.03l.14-.873.635-4.024h-1.49l.293-1.854h1.492l.32-2.009 4.824-.199-.35 2.208h4.059l-.296 1.854zm7.473 5.48c-.083.538-.168 1.069-.19 1.58-.01.316.084.59.199.867h-5.594c.487-.689.63-1.457.751-2.226l.035-.22.772-4.882c.086-.538.168-1.076.171-1.595a1.892 1.892 0 00-.18-.861h5.199l-1.163 7.338zm1.315-8.301h-4.802l.394-2.48h4.8l-.392 2.48zm12.82 2.83c.274-.477.544-.934.629-1.47.02-.138.004-.277.003-.396h2.665c-.491.595-.873 1.25-1.257 1.906l-4.47 7.878h-5.27l-2.3-8.475c-.122-.476-.314-.893-.51-1.309h5.87c-.02.119-.06.258-.08.377-.07.437.015.794.13 1.19l1.509 5.667 3.081-5.367zm17.445 3.956h-8.081l-.13.814c-.182 1.152.214 1.29 1.264 1.29h4.347c.717 0 1.484-.079 2.179-.456l-.724 2.311h-8.715c-2.383 0-3.497-.738-3.087-3.323l.498-3.145c.37-2.333 1.557-3.31 3.86-3.31h6.011c2.404 0 3.385.717 2.98 3.27l-.402 2.55zm-4.439-1.86l.165-1.043c.092-.57.092-1.062-.602-1.062h-1.883c-.574 0-.748.334-.844.944l-.184 1.16h3.348zm8.796-12.6h.442c.507 0 .933-.183.933-.656 0-.335-.243-.67-.933-.67-.196 0-.334.015-.442.031V6.51zm0 2.118h-.61V4.804c.32-.046.625-.091 1.083-.091.58 0 .964.12 1.193.288.23.168.35.427.35.791 0 .505-.336.809-.748.931v.03c.337.062.566.366.643.93.091.594.18.823.242.945h-.64c-.092-.122-.182-.472-.26-.975-.092-.488-.337-.67-.824-.67h-.43v1.645zm.643-4.892c-1.513 0-2.751 1.297-2.751 2.896 0 1.63 1.238 2.91 2.765 2.91 1.528.015 2.75-1.28 2.75-2.896 0-1.613-1.222-2.91-2.75-2.91h-.014zm.014-.533c1.877 0 3.375 1.523 3.375 3.429 0 1.935-1.498 3.444-3.39 3.444-1.88 0-3.408-1.509-3.408-3.444a3.413 3.413 0 013.409-3.43h.014zM11.973.24l5.471 6.631-3.872 7.558-.212-2.413s-3.834 1.949-4.62 6.295c-.374 2.064-.477 4.624 1.735 7.704 0 0-4.604.461-4.772.461-.133 0-1.304 4.661-1.556 5.29 0 0-7.726-8.575-2.087-19.866 1.956-3.918 5.879-7.221 10.1-8.666.036-.011-.187-2.994-.187-2.994zM4.717 36.434l2.403-8.246 8.438-1.075-1.876 1.536s3.503 1.96 7.219.627c2.037-.73 4.265-1.904 5.73-4.985 0 0 2.22 3.698 2.314 3.837.076.11 5.094-.885 5.758-1.03 0 0-3.105 9.29-14.387 10.992-5 .753-9.965-1.033-13.233-3.551l-2.366 1.895zm33.715-11.62l-8.557 1.226-4.38-7.274 2.046.977s.133-3.064-2.595-6.03c-1.524-1.657-3.89-3.021-7.542-2.944 0 0 2.077-3.964 2.165-4.106.071-.113-3.16-3.76-3.563-4.307 0 0 10.514-1.784 17.167 8.063 2.306 3.413 3.532 8.183 2.606 13.087l2.653 1.308z"/></g></svg>